<svg xmlns="http://www.w3.org/2000/svg" viewBox="0 0 512 512">
  <defs>
    <linearGradient id="g-makdous" x1="0" y1="0" x2="1" y2="1">
      <stop offset="0" stop-color="#7a1f5c"/>
      <stop offset="1" stop-color="#ff2d55"/>
    </linearGradient>
    <radialGradient id="h-makdous" cx=".3" cy=".1" r=".9">
      <stop offset="0" stop-color="#fff" stop-opacity=".28"/>
      <stop offset=".55" stop-color="#fff" stop-opacity="0"/>
    </radialGradient>
  </defs>
  <rect width="512" height="512" rx="114" fill="url(#g-makdous)"/>
  <rect width="512" height="512" rx="114" fill="url(#h-makdous)"/>
  <g fill="none" stroke="#fff" stroke-width="30" stroke-linecap="round" stroke-linejoin="round">
    <!-- eggplant (makdous): long curved body, leafy calyx, stem -->
    <path d="M334 206c40 26 50 84 26 138c-28 62-96 92-160 84c-52-6-78-50-58-90c16-32 58-40 96-62c40-24 56-52 66-72"/>
    <path d="M262 220c12-30 40-46 70-40c18 4 30 16 34 34"/>
    <path d="M322 180l26-58"/>
  </g>
  <path d="M188 372c26 12 62 8 92-12" fill="none" stroke="#fff" stroke-opacity=".55" stroke-width="18" stroke-linecap="round"/>
</svg>
