<svg xmlns="http://www.w3.org/2000/svg" viewBox="0 0 200 200" width="200" height="200" role="img"><rect width="200" height="200" rx="28" fill="#FFF6EC"/><ellipse cx="100" cy="112" rx="74" ry="56" fill="#FFFFFF"/><ellipse cx="100" cy="112" rx="74" ry="56" fill="none" stroke="#EDE4D8" stroke-width="4"/><ellipse cx="100" cy="112" rx="55" ry="40" fill="none" stroke="#EDE4D8" stroke-width="2" opacity=".7"/><path d="M54 118c0-20 20-34 46-34s46 14 46 34c0 12-21 18-46 18s-46-6-46-18Z" fill="#9A6A44"/><path d="M64 112c0-14 16-24 36-24s36 10 36 24" fill="#F6E3C8"/><g stroke="#9A6A44" stroke-width="4" stroke-linecap="round" opacity=".6"><path d="M80 100l8-8M100 96l8-8M120 100l8-8"/></g></svg>